<?xml version="1.0" standalone="no"?>
<!DOCTYPE svg PUBLIC "-//W3C//DTD SVG 20010904//EN"
 "http://www.w3.org/TR/2001/REC-SVG-20010904/DTD/svg10.dtd">
<svg version="1.0" xmlns="http://www.w3.org/2000/svg"
 width="700.000000pt" height="700.000000pt" viewBox="0 0 700.000000 700.000000"
 preserveAspectRatio="xMidYMid meet">
<metadata>
Created by potrace 1.11, written by Peter Selinger 2001-2013
</metadata>
<g transform="translate(0.000000,700.000000) scale(0.100000,-0.100000)"
fill="#000000" stroke="none">
<path d="M0 3500 l0 -1745 872 873 873 872 -873 872 -872 873 0 -1745z"/>
<path d="M3503 4806 l0 -433 433 -434 c239 -238 434 -436 434 -439 0 -3 -195
-200 -434 -439 l-433 -433 0 -434 c0 -239 1 -433 3 -432 23 18 1734 1733 1734
1738 0 6 -1730 1740 -1735 1740 -1 0 -2 -195 -2 -434z"/>
<path d="M5255 4807 l0 -434 430 -432 c237 -237 430 -436 430 -441 0 -5 -193
-204 -430 -441 l-430 -432 0 -429 c0 -236 2 -431 5 -432 3 -2 395 388 872 866
l868 868 -870 870 c-478 479 -871 870 -873 870 -1 0 -2 -195 -2 -433z"/>
<path d="M1752 4803 l-1 -428 437 -437 437 -438 -437 -437 -437 -438 0 -433
c1 -238 3 -432 5 -430 1 2 394 393 872 870 l869 867 -865 866 c-476 476 -868
865 -872 865 -5 0 -8 -192 -8 -427z"/>
</g>
</svg>
